<svg version="1.1" xmlns="http://www.w3.org/2000/svg" viewBox="0 0 863.5953311769763 417.8370221028945" width="863.5953311769763" height="417.8370221028945">
  <!-- svg-source:excalidraw -->
  
  <defs>
    <style class="style-fonts">
      @font-face {
        font-family: "Virgil";
        src: url("https://excalidraw.com/Virgil.woff2");
      }
      @font-face {
        font-family: "Cascadia";
        src: url("https://excalidraw.com/Cascadia.woff2");
      }
      @font-face {
        font-family: "Assistant";
        src: url("https://excalidraw.com/Assistant-Regular.woff2");
      }
    </style>
    
  </defs>
  <g stroke-linecap="round" transform="translate(10 10) rotate(0 421.79766558848814 198.91851105144724)"><path d="M32 0 C216.28 0, 400.55 0, 811.6 0 C832.93 0, 843.6 10.67, 843.6 32 C843.6 154.69, 843.6 277.37, 843.6 365.84 C843.6 387.17, 832.93 397.84, 811.6 397.84 C594.61 397.84, 377.63 397.84, 32 397.84 C10.67 397.84, 0 387.17, 0 365.84 C0 284.31, 0 202.78, 0 32 C0 10.67, 10.67 0, 32 0" stroke="none" stroke-width="0" fill="#000000"></path><path d="M32 0 C309.5 0, 587 0, 811.6 0 M32 0 C265.12 0, 498.25 0, 811.6 0 M811.6 0 C832.93 0, 843.6 10.67, 843.6 32 M811.6 0 C832.93 0, 843.6 10.67, 843.6 32 M843.6 32 C843.6 111.85, 843.6 191.69, 843.6 365.84 M843.6 32 C843.6 112.87, 843.6 193.75, 843.6 365.84 M843.6 365.84 C843.6 387.17, 832.93 397.84, 811.6 397.84 M843.6 365.84 C843.6 387.17, 832.93 397.84, 811.6 397.84 M811.6 397.84 C502.38 397.84, 193.17 397.84, 32 397.84 M811.6 397.84 C645.52 397.84, 479.44 397.84, 32 397.84 M32 397.84 C10.67 397.84, 0 387.17, 0 365.84 M32 397.84 C10.67 397.84, 0 387.17, 0 365.84 M0 365.84 C0 232.97, 0 100.11, 0 32 M0 365.84 C0 285.94, 0 206.04, 0 32 M0 32 C0 10.67, 10.67 0, 32 0 M0 32 C0 10.67, 10.67 0, 32 0" stroke="#000000" stroke-width="4" fill="none"></path></g><g stroke-linecap="round" transform="translate(118.351524285506 40.097679950717065) rotate(0 54.850264800632885 32.717707177610464)"><path d="M16.36 0 C32.27 0, 48.19 0, 93.34 0 M16.36 0 C41.65 0, 66.94 0, 93.34 0 M93.34 0 C104.25 0, 109.7 5.45, 109.7 16.36 M93.34 0 C104.25 0, 109.7 5.45, 109.7 16.36 M109.7 16.36 C109.7 25.69, 109.7 35.02, 109.7 49.08 M109.7 16.36 C109.7 23.17, 109.7 29.98, 109.7 49.08 M109.7 49.08 C109.7 59.98, 104.25 65.44, 93.34 65.44 M109.7 49.08 C109.7 59.98, 104.25 65.44, 93.34 65.44 M93.34 65.44 C77.28 65.44, 61.21 65.44, 16.36 65.44 M93.34 65.44 C76.14 65.44, 58.93 65.44, 16.36 65.44 M16.36 65.44 C5.45 65.44, 0 59.98, 0 49.08 M16.36 65.44 C5.45 65.44, 0 59.98, 0 49.08 M0 49.08 C0 37.37, 0 25.66, 0 16.36 M0 49.08 C0 42, 0 34.91, 0 16.36 M0 16.36 C0 5.45, 5.45 0, 16.36 0 M0 16.36 C0 5.45, 5.45 0, 16.36 0" stroke="#ffffff" stroke-width="4" fill="none"></path></g><g transform="translate(135.3107387520381 63.102115646835955) rotate(0 36.76475321477005 10.756316369121123)"><text x="36.7647532147701" y="17.310946656554606" font-family="Cascadia, Segoe UI Emoji" font-size="17.927193948535518px" fill="#ffffff" text-anchor="middle" style="white-space: pre;" direction="ltr" dominant-baseline="alphabetic">Dataset</text></g><g transform="translate(316.488749594017 82.2749157573744) rotate(0 18.67416036305781 4.7805850529430245)"><text x="18.674160363057826" y="7.693754069579824" font-family="Cascadia, Segoe UI Emoji" font-size="7.9676417549046725px" fill="#f08c00" text-anchor="middle" style="white-space: pre;" direction="ltr" dominant-baseline="alphabetic">datasets</text></g><g stroke-linecap="round" transform="translate(303.4297437514747 181.98762563571654) rotate(0 46.02833793326704 27.72160899112896)"><path d="M13.86 0 C35.47 0, 57.07 0, 78.2 0 M13.86 0 C38.92 0, 63.99 0, 78.2 0 M78.2 0 C87.44 0, 92.06 4.62, 92.06 13.86 M78.2 0 C87.44 0, 92.06 4.62, 92.06 13.86 M92.06 13.86 C92.06 20.91, 92.06 27.96, 92.06 41.58 M92.06 13.86 C92.06 20.56, 92.06 27.26, 92.06 41.58 M92.06 41.58 C92.06 50.82, 87.44 55.44, 78.2 55.44 M92.06 41.58 C92.06 50.82, 87.44 55.44, 78.2 55.44 M78.2 55.44 C57.72 55.44, 37.24 55.44, 13.86 55.44 M78.2 55.44 C59.14 55.44, 40.09 55.44, 13.86 55.44 M13.86 55.44 C4.62 55.44, 0 50.82, 0 41.58 M13.86 55.44 C4.62 55.44, 0 50.82, 0 41.58 M0 41.58 C0 35.02, 0 28.47, 0 13.86 M0 41.58 C0 35.57, 0 29.56, 0 13.86 M0 13.86 C0 4.62, 4.62 0, 13.86 0 M0 13.86 C0 4.62, 4.62 0, 13.86 0" stroke="#ffffff" stroke-width="4" fill="none"></path></g><g transform="translate(312.6933683754519 189.04878068427388) rotate(0 36.76475321477005 21.512632738242246)"><text x="36.7647532147701" y="17.310946656554606" font-family="Cascadia, Segoe UI Emoji" font-size="17.927193948535518px" fill="#ffffff" text-anchor="middle" style="white-space: pre;" direction="ltr" dominant-baseline="alphabetic">Embeded</text><text x="36.7647532147701" y="38.82357939479722" font-family="Cascadia, Segoe UI Emoji" font-size="17.927193948535518px" fill="#ffffff" text-anchor="middle" style="white-space: pre;" direction="ltr" dominant-baseline="alphabetic">Query</text></g><g stroke-linecap="round"><g transform="translate(126.51254985873993 209.05984492055723) rotate(0 88.25175017126003 -1.8717989479455355)"><path d="M0 0 C29.42 -0.62, 147.09 -3.12, 176.5 -3.74 M0 0 C29.42 -0.62, 147.09 -3.12, 176.5 -3.74" stroke="#ffffff" stroke-width="4" fill="none"></path></g><g transform="translate(126.51254985873993 209.05984492055723) rotate(0 88.25175017126003 -1.8717989479455355)"><path d="M153.2 5.3 C160.55 2.45, 167.9 -0.4, 176.5 -3.74 M153.2 5.3 C161.92 1.92, 170.63 -1.47, 176.5 -3.74" stroke="#ffffff" stroke-width="4" fill="none"></path></g><g transform="translate(126.51254985873993 209.05984492055723) rotate(0 88.25175017126003 -1.8717989479455355)"><path d="M152.84 -11.79 C160.3 -9.26, 167.76 -6.72, 176.5 -3.74 M152.84 -11.79 C161.69 -8.78, 170.54 -5.77, 176.5 -3.74" stroke="#ffffff" stroke-width="4" fill="none"></path></g></g><mask></mask><g stroke-linecap="round" transform="translate(25.97530742357867 167.05230541066885) rotate(0 49.4600461417599 42.69037013429988)"><path d="M98.92 42.69 C98.92 44.72, 98.75 46.76, 98.42 48.77 C98.08 50.77, 97.58 52.77, 96.92 54.72 C96.26 56.66, 95.43 58.58, 94.45 60.42 C93.48 62.27, 92.34 64.07, 91.07 65.77 C89.8 67.47, 88.38 69.12, 86.84 70.65 C85.3 72.18, 83.62 73.63, 81.85 74.95 C80.08 76.28, 78.17 77.51, 76.2 78.6 C74.23 79.7, 72.14 80.68, 70.01 81.52 C67.87 82.36, 65.65 83.08, 63.39 83.65 C61.14 84.22, 58.82 84.66, 56.5 84.95 C54.18 85.23, 51.81 85.38, 49.46 85.38 C47.11 85.38, 44.74 85.23, 42.42 84.95 C40.1 84.66, 37.78 84.22, 35.53 83.65 C33.27 83.08, 31.05 82.36, 28.91 81.52 C26.78 80.68, 24.69 79.7, 22.72 78.6 C20.75 77.51, 18.84 76.28, 17.07 74.95 C15.3 73.63, 13.62 72.18, 12.08 70.65 C10.54 69.12, 9.12 67.47, 7.85 65.77 C6.58 64.07, 5.44 62.27, 4.47 60.42 C3.49 58.58, 2.66 56.66, 2 54.72 C1.34 52.77, 0.84 50.77, 0.5 48.77 C0.17 46.76, 0 44.72, 0 42.69 C0 40.67, 0.17 38.62, 0.5 36.61 C0.84 34.61, 1.34 32.61, 2 30.66 C2.66 28.72, 3.49 26.8, 4.47 24.96 C5.44 23.11, 6.58 21.31, 7.85 19.61 C9.12 17.91, 10.54 16.26, 12.08 14.73 C13.62 13.2, 15.3 11.75, 17.07 10.43 C18.84 9.1, 20.75 7.87, 22.72 6.78 C24.69 5.68, 26.78 4.7, 28.91 3.86 C31.05 3.02, 33.27 2.3, 35.53 1.73 C37.78 1.16, 40.1 0.72, 42.42 0.43 C44.74 0.15, 47.11 0, 49.46 0 C51.81 0, 54.18 0.15, 56.5 0.43 C58.82 0.72, 61.14 1.16, 63.39 1.73 C65.65 2.3, 67.87 3.02, 70.01 3.86 C72.14 4.7, 74.23 5.68, 76.2 6.78 C78.17 7.87, 80.08 9.1, 81.85 10.43 C83.62 11.75, 85.3 13.2, 86.84 14.73 C88.38 16.26, 89.8 17.91, 91.07 19.61 C92.34 21.31, 93.48 23.11, 94.45 24.96 C95.43 26.8, 96.26 28.72, 96.92 30.66 C97.58 32.61, 98.08 34.61, 98.42 36.61 C98.75 38.62, 98.84 41.68, 98.92 42.69 C99 43.7, 99 41.68, 98.92 42.69" stroke="#ffffff" stroke-width="4" fill="none"></path></g><g transform="translate(46.90450949852766 198.5334512939571) rotate(0 26.260538010550135 10.756316369121123)"><text x="26.260538010550075" y="17.310946656554606" font-family="Cascadia, Segoe UI Emoji" font-size="17.927193948535518px" fill="#ffffff" text-anchor="middle" style="white-space: pre;" direction="ltr" dominant-baseline="alphabetic">Query</text></g><g stroke-linecap="round"><g transform="translate(397.42660981777 213.8786294251604) rotate(0 80.49039245578433 14.381469716775428)"><path d="M0 0 C24.8 -3.12, 121.95 -26.6, 148.78 -18.69 C175.61 -10.78, 158.95 36.43, 160.98 47.46 M0 0 C24.8 -3.12, 121.95 -26.6, 148.78 -18.69 C175.61 -10.78, 158.95 36.43, 160.98 47.46" stroke="#ffffff" stroke-width="4" fill="none"></path></g><g transform="translate(397.42660981777 213.8786294251604) rotate(0 80.49039245578433 14.381469716775428)"><path d="M154.5 23.31 C156.1 29.26, 157.7 35.22, 160.98 47.46 M154.5 23.31 C156.82 31.96, 159.14 40.6, 160.98 47.46" stroke="#ffffff" stroke-width="4" fill="none"></path></g><g transform="translate(397.42660981777 213.8786294251604) rotate(0 80.49039245578433 14.381469716775428)"><path d="M171.54 24.79 C168.93 30.38, 166.33 35.97, 160.98 47.46 M171.54 24.79 C167.76 32.91, 163.98 41.02, 160.98 47.46" stroke="#ffffff" stroke-width="4" fill="none"></path></g></g><mask></mask><g stroke-linecap="round"><g transform="translate(228.38076855426834 68.50551334134252) rotate(0 129.4831938079858 5.044791774972509)"><path d="M0 0 C43.16 1.68, 215.81 8.41, 258.97 10.09 M0 0 C43.16 1.68, 215.81 8.41, 258.97 10.09" stroke="#ffffff" stroke-width="4" fill="none"></path></g><g transform="translate(228.38076855426834 68.50551334134252) rotate(0 129.4831938079858 5.044791774972509)"><path d="M235.16 17.72 C240.2 16.1, 245.24 14.49, 258.97 10.09 M235.16 17.72 C243.43 15.07, 251.7 12.42, 258.97 10.09" stroke="#ffffff" stroke-width="4" fill="none"></path></g><g transform="translate(228.38076855426834 68.50551334134252) rotate(0 129.4831938079858 5.044791774972509)"><path d="M235.82 0.63 C240.72 2.63, 245.62 4.64, 258.97 10.09 M235.82 0.63 C243.87 3.92, 251.91 7.2, 258.97 10.09" stroke="#ffffff" stroke-width="4" fill="none"></path></g></g><mask></mask><g stroke-linecap="round"><g transform="translate(536.6740565980722 127.36150469515997) rotate(0 -30.549066455415414 33.071443633086346)"><path d="M0 0 C-10.18 10.37, -60.63 51.2, -61.1 62.22 C-61.57 73.24, -12.52 65.49, -2.8 66.14 M0 0 C-10.18 10.37, -60.63 51.2, -61.1 62.22 C-61.57 73.24, -12.52 65.49, -2.8 66.14" stroke="#ffffff" stroke-width="4" fill="none"></path></g></g><mask></mask><g stroke-linecap="round" transform="translate(490.7103471231135 263.01052363699273) rotate(0 55.2125380519783 35.593884958696435)"><path d="M17.8 0 C45.49 0, 73.18 0, 92.63 0 M17.8 0 C45.64 0, 73.48 0, 92.63 0 M92.63 0 C104.49 0, 110.43 5.93, 110.43 17.8 M92.63 0 C104.49 0, 110.43 5.93, 110.43 17.8 M110.43 17.8 C110.43 27.25, 110.43 36.7, 110.43 53.39 M110.43 17.8 C110.43 31.55, 110.43 45.31, 110.43 53.39 M110.43 53.39 C110.43 65.26, 104.49 71.19, 92.63 71.19 M110.43 53.39 C110.43 65.26, 104.49 71.19, 92.63 71.19 M92.63 71.19 C63.25 71.19, 33.87 71.19, 17.8 71.19 M92.63 71.19 C66.04 71.19, 39.45 71.19, 17.8 71.19 M17.8 71.19 C5.93 71.19, 0 65.26, 0 53.39 M17.8 71.19 C5.93 71.19, 0 65.26, 0 53.39 M0 53.39 C0 42.62, 0 31.84, 0 17.8 M0 53.39 C0 39.43, 0 25.48, 0 17.8 M0 17.8 C0 5.93, 5.93 0, 17.8 0 M0 17.8 C0 5.93, 5.93 0, 17.8 0" stroke="#ffffff" stroke-width="4" fill="none"></path></g><g transform="translate(498.09337067552497 276.18304648217054) rotate(0 47.2689684189902 21.512632738242246)"><text x="47.26896841899013" y="17.310946656554606" font-family="Cascadia, Segoe UI Emoji" font-size="17.927193948535514px" fill="#ffffff" text-anchor="middle" style="white-space: pre;" direction="ltr" dominant-baseline="alphabetic">Retrieved</text><text x="47.26896841899013" y="38.82357939479722" font-family="Cascadia, Segoe UI Emoji" font-size="17.927193948535514px" fill="#ffffff" text-anchor="middle" style="white-space: pre;" direction="ltr" dominant-baseline="alphabetic">Documents</text></g><g stroke-linecap="round"><g transform="translate(79.57650135859649 252.7823901970678) rotate(0 319.4284463348479 62.00818955705472)"><path d="M0 0 C66.09 20.67, 290.08 117.52, 396.56 124.02 C503.04 130.51, 598.47 53.14, 638.86 38.96 M0 0 C66.09 20.67, 290.08 117.52, 396.56 124.02 C503.04 130.51, 598.47 53.14, 638.86 38.96" stroke="#ffffff" stroke-width="4" fill="none"></path></g><g transform="translate(79.57650135859649 252.7823901970678) rotate(0 319.4284463348479 62.00818955705472)"><path d="M621.91 57.34 C627.91 50.84, 633.91 44.33, 638.86 38.96 M621.91 57.34 C626.89 51.94, 631.87 46.54, 638.86 38.96" stroke="#ffffff" stroke-width="4" fill="none"></path></g><g transform="translate(79.57650135859649 252.7823901970678) rotate(0 319.4284463348479 62.00818955705472)"><path d="M614.06 42.15 C622.84 41.02, 631.61 39.89, 638.86 38.96 M614.06 42.15 C621.34 41.21, 628.63 40.28, 638.86 38.96" stroke="#ffffff" stroke-width="4" fill="none"></path></g></g><mask></mask><g stroke-linecap="round"><g transform="translate(601.4936235295372 294.2819695671333) rotate(0 43.176104383722304 16.737570898460035)"><path d="M0 0 C4.05 5.58, 9.93 31.45, 24.32 33.48 C38.71 35.5, 76.01 15.71, 86.35 12.16 M0 0 C4.05 5.58, 9.93 31.45, 24.32 33.48 C38.71 35.5, 76.01 15.71, 86.35 12.16" stroke="#ffffff" stroke-width="4" fill="none"></path></g></g><mask></mask><g stroke-linecap="round" transform="translate(718.9313716379738 255.41507596849624) rotate(0 55.267972650812 32.75136847721842)"><path d="M16.38 0 C38.12 0, 59.87 0, 94.16 0 M16.38 0 C43.42 0, 70.47 0, 94.16 0 M94.16 0 C105.08 0, 110.54 5.46, 110.54 16.38 M94.16 0 C105.08 0, 110.54 5.46, 110.54 16.38 M110.54 16.38 C110.54 27.05, 110.54 37.72, 110.54 49.13 M110.54 16.38 C110.54 23.12, 110.54 29.86, 110.54 49.13 M110.54 49.13 C110.54 60.04, 105.08 65.5, 94.16 65.5 M110.54 49.13 C110.54 60.04, 105.08 65.5, 94.16 65.5 M94.16 65.5 C72.41 65.5, 50.65 65.5, 16.38 65.5 M94.16 65.5 C77.79 65.5, 61.42 65.5, 16.38 65.5 M16.38 65.5 C5.46 65.5, 0 60.04, 0 49.13 M16.38 65.5 C5.46 65.5, 0 60.04, 0 49.13 M0 49.13 C0 36.44, 0 23.75, 0 16.38 M0 49.13 C0 39.7, 0 30.27, 0 16.38 M0 16.38 C0 5.46, 5.46 0, 16.38 0 M0 16.38 C0 5.46, 5.46 0, 16.38 0" stroke="#ffffff" stroke-width="4" fill="none"></path></g><g transform="translate(739.9087103452366 266.96577997279564) rotate(0 31.51264561265998 21.512632738242246)"><text x="31.512645612660084" y="17.310946656554606" font-family="Cascadia, Segoe UI Emoji" font-size="17.927193948535518px" fill="#ffffff" text-anchor="middle" style="white-space: pre;" direction="ltr" dominant-baseline="alphabetic">Format</text><text x="31.512645612660084" y="38.82357939479722" font-family="Cascadia, Segoe UI Emoji" font-size="17.927193948535518px" fill="#ffffff" text-anchor="middle" style="white-space: pre;" direction="ltr" dominant-baseline="alphabetic">Prompt</text></g><g stroke-linecap="round"><g transform="translate(763.3826554307566 254.91709835881557) rotate(0 -0.3866518957406697 -44.9774286525726)"><path d="M0 0 C-0.13 -14.99, -0.64 -74.96, -0.77 -89.95 M0 0 C-0.13 -14.99, -0.64 -74.96, -0.77 -89.95" stroke="#ffffff" stroke-width="4" fill="none"></path></g><g transform="translate(763.3826554307566 254.91709835881557) rotate(0 -0.3866518957406697 -44.9774286525726)"><path d="M7.98 -66.54 C6.18 -71.36, 4.38 -76.18, -0.77 -89.95 M7.98 -66.54 C4.95 -74.64, 1.92 -82.75, -0.77 -89.95" stroke="#ffffff" stroke-width="4" fill="none"></path></g><g transform="translate(763.3826554307566 254.91709835881557) rotate(0 -0.3866518957406697 -44.9774286525726)"><path d="M-9.12 -66.39 C-7.4 -71.24, -5.68 -76.09, -0.77 -89.95 M-9.12 -66.39 C-6.23 -74.55, -3.34 -82.71, -0.77 -89.95" stroke="#ffffff" stroke-width="4" fill="none"></path></g></g><mask></mask><g stroke-linecap="round" transform="translate(718.4927101976727 86.68692689495765) rotate(0 43.27862951632483 38.892277257146816)"><path d="M86.56 38.89 C86.56 40.74, 86.41 42.6, 86.12 44.43 C85.82 46.25, 85.38 48.08, 84.8 49.85 C84.23 51.62, 83.5 53.37, 82.65 55.05 C81.79 56.73, 80.8 58.37, 79.69 59.92 C78.58 61.47, 77.33 62.97, 75.99 64.36 C74.64 65.76, 73.17 67.08, 71.62 68.29 C70.07 69.49, 68.4 70.61, 66.68 71.61 C64.95 72.61, 63.12 73.5, 61.26 74.27 C59.39 75.04, 57.44 75.69, 55.47 76.21 C53.5 76.73, 51.47 77.13, 49.44 77.39 C47.41 77.65, 45.33 77.78, 43.28 77.78 C41.23 77.78, 39.15 77.65, 37.12 77.39 C35.09 77.13, 33.06 76.73, 31.09 76.21 C29.12 75.69, 27.17 75.04, 25.3 74.27 C23.43 73.5, 21.61 72.61, 19.88 71.61 C18.15 70.61, 16.49 69.49, 14.94 68.29 C13.39 67.08, 11.92 65.76, 10.57 64.36 C9.23 62.97, 7.98 61.47, 6.87 59.92 C5.76 58.37, 4.76 56.73, 3.91 55.05 C3.06 53.37, 2.33 51.62, 1.75 49.85 C1.17 48.08, 0.73 46.25, 0.44 44.43 C0.15 42.6, 0 40.74, 0 38.89 C0 37.05, 0.15 35.18, 0.44 33.36 C0.73 31.53, 1.17 29.71, 1.75 27.94 C2.33 26.16, 3.06 24.41, 3.91 22.74 C4.76 21.06, 5.76 19.42, 6.87 17.87 C7.98 16.31, 9.23 14.82, 10.57 13.42 C11.92 12.03, 13.39 10.71, 14.94 9.5 C16.49 8.29, 18.15 7.17, 19.88 6.17 C21.61 5.18, 23.43 4.28, 25.3 3.51 C27.17 2.75, 29.12 2.1, 31.09 1.58 C33.06 1.06, 35.09 0.66, 37.12 0.4 C39.15 0.13, 41.23 0, 43.28 0 C45.33 0, 47.41 0.13, 49.44 0.4 C51.47 0.66, 53.5 1.06, 55.47 1.58 C57.44 2.1, 59.39 2.75, 61.26 3.51 C63.12 4.28, 64.95 5.18, 66.68 6.17 C68.4 7.17, 70.07 8.29, 71.62 9.5 C73.17 10.71, 74.64 12.03, 75.99 13.42 C77.33 14.82, 78.58 16.31, 79.69 17.87 C80.8 19.42, 81.79 21.06, 82.65 22.74 C83.5 24.41, 84.23 26.16, 84.8 27.94 C85.38 29.71, 85.82 31.53, 86.12 33.36 C86.41 35.18, 86.48 37.97, 86.56 38.89 C86.63 39.81, 86.63 37.97, 86.56 38.89" stroke="#ffffff" stroke-width="4" fill="none"></path></g><g transform="translate(730.2586941013378 114.17471505037793) rotate(0 31.51264561265998 10.756316369121123)"><text x="31.512645612660084" y="17.310946656554606" font-family="Cascadia, Segoe UI Emoji" font-size="17.927193948535518px" fill="#ffffff" text-anchor="middle" style="white-space: pre;" direction="ltr" dominant-baseline="alphabetic">Output</text></g><g stroke-linecap="round" transform="translate(487.4774940494435 62.36243118397397) rotate(0 54.850264800632885 32.717707177610464)"><path d="M16.36 0 C43.88 0, 71.4 0, 93.34 0 M16.36 0 C46.77 0, 77.19 0, 93.34 0 M93.34 0 C104.25 0, 109.7 5.45, 109.7 16.36 M93.34 0 C104.25 0, 109.7 5.45, 109.7 16.36 M109.7 16.36 C109.7 28.75, 109.7 41.14, 109.7 49.08 M109.7 16.36 C109.7 24.98, 109.7 33.6, 109.7 49.08 M109.7 49.08 C109.7 59.98, 104.25 65.44, 93.34 65.44 M109.7 49.08 C109.7 59.98, 104.25 65.44, 93.34 65.44 M93.34 65.44 C74.45 65.44, 55.55 65.44, 16.36 65.44 M93.34 65.44 C67.36 65.44, 41.38 65.44, 16.36 65.44 M16.36 65.44 C5.45 65.44, 0 59.98, 0 49.08 M16.36 65.44 C5.45 65.44, 0 59.98, 0 49.08 M0 49.08 C0 40.55, 0 32.02, 0 16.36 M0 49.08 C0 37.51, 0 25.93, 0 16.36 M0 16.36 C0 5.45, 5.45 0, 16.36 0 M0 16.36 C0 5.45, 5.45 0, 16.36 0" stroke="#ffffff" stroke-width="4" fill="none"></path></g><g transform="translate(502.2571784258862 75.34103179138037) rotate(0 42.016860816880126 21.512632738242246)"><text x="42.01686081688012" y="17.310946656554606" font-family="Cascadia, Segoe UI Emoji" font-size="17.927193948535518px" fill="#ffffff" text-anchor="middle" style="white-space: pre;" direction="ltr" dominant-baseline="alphabetic">Embedded</text><text x="42.01686081688012" y="38.82357939479722" font-family="Cascadia, Segoe UI Emoji" font-size="17.927193948535518px" fill="#ffffff" text-anchor="middle" style="white-space: pre;" direction="ltr" dominant-baseline="alphabetic">Dataset</text></g><g transform="translate(278.0586779554601 45.125365553436495) rotate(0 79.36518154299574 4.7805850529430245)"><text x="79.36518154299577" y="7.693754069579824" font-family="Cascadia, Segoe UI Emoji" font-size="7.9676417549046725px" fill="#f08c00" text-anchor="middle" style="white-space: pre;" direction="ltr" dominant-baseline="alphabetic">mixedbread-ai/mxbai-embed-large-v1</text></g><g transform="translate(131.1713326081367 187.02262634428553) rotate(0 79.36518154299574 4.7805850529430245)"><text x="79.36518154299577" y="7.693754069579824" font-family="Cascadia, Segoe UI Emoji" font-size="7.9676417549046725px" fill="#f08c00" text-anchor="middle" style="white-space: pre;" direction="ltr" dominant-baseline="alphabetic">mixedbread-ai/mxbai-embed-large-v1</text></g><g transform="translate(516.0379528790259 176.53223435856125) rotate(359.231163517402 18.67416036305781 4.7805850529430245)"><text x="18.674160363057826" y="7.693754069579824" font-family="Cascadia, Segoe UI Emoji" font-size="7.9676417549046725px" fill="#f08c00" text-anchor="middle" style="white-space: pre;" direction="ltr" dominant-baseline="alphabetic">datasets</text></g><g transform="translate(522.0598554851185 206.8010170823618) rotate(0 11.671350226911045 4.7805850529430245)"><text x="11.671350226911143" y="7.693754069579826" font-family="Cascadia, Segoe UI Emoji" font-size="7.967641754904673px" fill="#f08c00" text-anchor="middle" style="white-space: pre;" direction="ltr" dominant-baseline="alphabetic">faiss</text></g><g transform="translate(592.6374400730474 203.55435201775254) rotate(359.231163517402 81.699451588378 4.7805850529430245)"><text x="81.69945158837801" y="7.693754069579826" font-family="Cascadia, Segoe UI Emoji" font-size="7.967641754904673px" fill="#f08c00" text-anchor="middle" style="white-space: pre;" direction="ltr" dominant-baseline="alphabetic">meta-llama/Meta-Llama-3-8B-Instruct</text></g></svg>